<svg width="1085" height="626" viewBox="0 0 1085 626" fill="none" xmlns="http://www.w3.org/2000/svg">
<path d="M452.691 0V317.444H1136V0H452.691ZM455.145 314.905V2.53955H623.212V314.905H455.145ZM625.665 2.53955H819.494V314.905H625.665V2.53955ZM1133.55 314.905H821.948V2.53955H1133.55V314.905Z" fill="#3F3D56"/>
<path d="M530.438 155.222H483.952C489.181 133.017 494.204 112.286 483.952 97.4822H530.438C539.188 116.749 539.188 135.995 530.438 155.222Z" fill="#7E60EE"/>
<path d="M764.143 263.722H717.657C714.749 236.956 721.164 217.005 717.657 205.983H764.143C762.357 225.185 762.357 244.52 764.143 263.722Z" fill="#E6E6E6"/>
<path d="M707.346 179.614H660.859C662.602 157.413 668.222 136.681 660.859 121.874H707.346C716.098 141.121 716.098 160.367 707.346 179.614Z" fill="#7E60EE"/>
<path d="M747.505 141.856H793.991C796.898 119.651 790.484 98.9204 793.991 84.1168H747.505C738.752 103.363 738.752 122.61 747.505 141.856Z" fill="#FF6584"/>
<path d="M531.859 245.974H578.345C581.253 223.769 574.838 203.038 578.345 188.235H531.859C523.106 207.481 523.106 226.728 531.859 245.974Z" fill="#E6E6E6"/>
<path d="M566.78 27.245H498.209V29.7845H566.78V27.245Z" fill="#3F3D56"/>
<path d="M755.702 27.245H687.131V29.7845H755.702V27.245Z" fill="#3F3D56"/>
<path d="M1012.1 27.245H943.525V29.7845H1012.1V27.245Z" fill="#3F3D56"/>
<path d="M72.2731 438.698V442.172C72.2779 447.93 74.4899 453.451 78.4234 457.522C82.357 461.594 87.6907 463.883 93.2536 463.888H271.168C276.732 463.886 282.067 461.597 286.002 457.525C289.936 453.453 292.147 447.931 292.149 442.172V438.698C292.159 433.616 290.435 428.693 287.281 424.799C286.231 423.506 285.043 422.341 283.739 421.325H191.459C190.346 421.324 189.279 420.866 188.492 420.052C187.705 419.238 187.263 418.133 187.263 416.981H93.2536C87.6916 416.989 82.3596 419.28 78.4266 423.351C74.4937 427.422 72.2808 432.941 72.2731 438.698Z" fill="#CCCCCC"/>
<path d="M170.47 622.856H192.29L192.29 463.025H170.47L170.47 622.856Z" fill="#CCCCCC"/>
<path d="M108.368 622.063C108.368 624.503 141.432 623.006 182.219 623.006C223.006 623.006 256.07 624.503 256.07 622.063C256.07 619.622 223.006 600.271 182.219 600.271C141.432 600.271 108.368 619.622 108.368 622.063Z" fill="#CCCCCC"/>
<path d="M293.311 602.509L314.155 602.508L324.071 519.29L293.308 519.292L293.311 602.509Z" fill="#A0616A"/>
<path d="M287.994 595.465L329.044 595.463H329.045C335.983 595.463 342.637 598.316 347.543 603.394C352.448 608.472 355.205 615.359 355.205 622.54V623.42L287.996 623.422L287.994 595.465Z" fill="#2F2E41"/>
<path d="M212.626 558.312L195.738 570.959L140.573 509.558L165.497 490.892L212.626 558.312Z" fill="#A0616A"/>
<path d="M228.777 572.029L174.326 612.809L173.827 612.096C169.761 606.278 168.093 599.026 169.192 591.936C170.29 584.845 174.065 578.497 179.685 574.287L179.687 574.286L212.943 549.379L228.777 572.029Z" fill="#2F2E41"/>
<path d="M235.439 234.83C235.439 234.83 213.57 217.876 189.923 234.83L173.557 376.119H222.699L229.979 330.907L246.359 263.088L235.439 234.83Z" fill="#CCCCCC"/>
<path d="M284.669 453.04L196.474 423.232L154.429 457.766L199.095 528.444L175.734 560.156L175.065 559.368C172.167 555.951 104.083 475.419 104.281 452.578C104.476 429.928 111.726 407.159 111.8 406.931L133.916 374.438L165.305 364.883L269.225 379.98L269.395 380.005L311.382 406.457C315.536 409.22 319.039 412.913 321.63 417.264C324.222 421.616 325.836 426.514 326.354 431.597C328.157 448.394 331.783 582.905 331.819 584.262L331.843 585.143H286.493L284.669 453.04Z" fill="#2F2E41"/>
<path d="M228.732 419.291C213.403 412.24 193.827 384.707 190.601 380.063C184.293 383.618 138.296 409.062 125.329 402.521C123.446 403.596 114.932 408.855 113.399 416.789L113.014 418.78L111.903 417.107C111.698 416.799 91.7203 386.052 117.565 366.943C141.129 349.522 147.469 331.921 148.133 329.907L135.347 259.957L135.682 259.634C136.731 258.626 161.622 234.921 184.334 232.102L198.344 229.546L198.957 284.752V355.428C210.277 353.955 228.186 230.465 228.186 230.465L237.544 234.014C239.962 234.494 267.138 240.113 274.349 251.309L274.584 251.673L249.867 320.843L242.638 332.108V346.528L284.869 384.539L284.269 385.189C282.83 386.749 251.689 420.274 233.548 420.269C231.894 420.297 230.253 419.964 228.732 419.291Z" fill="#3F3D56"/>
<path d="M248.361 193.508C259.147 173.085 251.896 147.478 232.164 136.314C212.433 125.15 187.694 132.655 176.908 153.079C166.121 173.502 173.373 199.108 193.104 210.273C212.836 221.437 237.575 213.931 248.361 193.508Z" fill="#A0616A"/>
<path d="M202.382 431.842C202.674 429.448 203.469 427.15 204.712 425.109C205.954 423.068 207.614 421.334 209.574 420.029C211.534 418.724 213.747 417.879 216.056 417.555C218.366 417.231 220.716 417.434 222.941 418.152L246.279 389.195L266.738 399.583L233.227 439.996C231.814 443.785 229.108 446.907 225.621 448.769C222.134 450.631 218.107 451.105 214.305 450.099C210.503 449.094 207.19 446.681 204.992 443.316C202.795 439.951 201.866 435.868 202.382 431.842Z" fill="#A0616A"/>
<path d="M218.877 407.286L255.489 356.128L246.42 305.441L261.132 248.335L261.503 248.171C261.799 248.038 268.841 244.968 274.201 247.269C275.297 247.738 276.288 248.436 277.11 249.321C277.933 250.205 278.569 251.257 278.979 252.408C282.622 261.834 291.403 357.827 291.775 362.075C291.7 362.851 289.897 381.159 286.231 388.748C282.582 396.302 249.299 434.417 247.884 436.037L247.299 436.706L218.877 407.286Z" fill="#3F3D56"/>
<path d="M247.611 162.446C234.057 180.089 210.828 176.856 192.242 170.4C193.323 184.524 189.618 198.597 181.763 210.201C184.163 200.193 174.052 198.201 168.151 194.48C165.88 191.503 167.767 187.061 166.835 183.394C156.24 170.537 149.22 160.837 162.82 145.751C170.78 134.721 180.335 120.949 195.503 123.847C207.504 109.355 227.172 113.124 240.592 123.261C246.625 127.881 252.113 133.219 256.943 139.165C255.398 146.989 252.522 154.466 248.449 161.247" fill="#2F2E41"/>
<path d="M468.625 626H1.22677C0.901408 626 0.589374 625.866 0.359311 625.628C0.129247 625.39 0 625.067 0 624.73C0 624.393 0.129247 624.071 0.359311 623.832C0.589374 623.594 0.901408 623.46 1.22677 623.46H468.625C468.95 623.46 469.262 623.594 469.492 623.832C469.722 624.071 469.851 624.393 469.851 624.73C469.851 625.067 469.722 625.39 469.492 625.628C469.262 625.866 468.95 626 468.625 626Z" fill="#3F3D56"/>
<path d="M236.785 455.06H190.298C192.041 432.859 197.661 412.127 190.298 397.32H236.785C245.537 416.567 245.537 435.813 236.785 455.06Z" fill="#7E60EE"/>
<path d="M216.473 444.16C216.182 441.767 215.387 439.469 214.144 437.428C212.901 435.387 211.242 433.653 209.282 432.347C207.321 431.042 205.109 430.198 202.799 429.873C200.49 429.549 198.139 429.753 195.914 430.47L172.577 401.514L152.117 411.901L185.629 452.314C187.041 456.104 189.747 459.225 193.235 461.088C196.722 462.95 200.748 463.423 204.55 462.418C208.352 461.413 211.666 458.999 213.863 455.634C216.061 452.269 216.99 448.187 216.473 444.16Z" fill="#A0616A"/>
<path d="M171.24 438.973C169.153 437.353 120.06 399.159 114.575 387.807C109.082 376.434 110.443 342.759 110.515 341.227C110.6 340.698 119.147 288.071 126.377 269.364C133.878 249.954 152.745 257.503 152.935 257.582L153.506 257.818L145.29 357.027L190.102 418.557L171.845 439.442L171.24 438.973Z" fill="#3F3D56"/>
</svg>
