<svg xmlns="http://www.w3.org/2000/svg" width="67" height="67" viewBox="0 0 67 67">
  <g id="Group_1" data-name="Group 1" transform="translate(-1808 -11)">
    <circle id="Ellipse_1" data-name="Ellipse 1" cx="33.5" cy="33.5" r="33.5" transform="translate(1808 11)" fill="#afa8ff"/>
    <path id="Icon_awesome-user-alt" data-name="Icon awesome-user-alt" d="M15.5,17.44a8.72,8.72,0,1,0-8.72-8.72A8.722,8.722,0,0,0,15.5,17.44Zm7.751,1.938H19.917a10.542,10.542,0,0,1-8.829,0H7.751A7.751,7.751,0,0,0,0,27.13V28.1a2.907,2.907,0,0,0,2.907,2.907H28.1A2.908,2.908,0,0,0,31.005,28.1V27.13A7.751,7.751,0,0,0,23.254,19.378Z" transform="translate(1825.748 29.176)" fill="#fff"/>
  </g>
</svg>
