<svg width="77" height="77" viewBox="0 0 77 77" fill="none" xmlns="http://www.w3.org/2000/svg">
<g filter="url(#filter0_d)">
<mask id="mask0" mask-type="alpha" maskUnits="userSpaceOnUse" x="11" y="11" width="55" height="55">
<circle cx="38.5" cy="38.5" r="27.5" fill="#C4C4C4"/>
</mask>
<g mask="url(#mask0)">
<circle cx="38.5" cy="38.5" r="27.5" fill="white"/>
<path opacity="0.3" d="M30.6375 26.288H21.7632C21.1691 26.288 20.6875 26.6733 20.6875 27.1485C20.6875 27.6238 21.1691 28.0091 21.7632 28.0091H30.6375C31.2316 28.0091 31.7132 27.6238 31.7132 27.1485C31.7132 26.6733 31.2316 26.288 30.6375 26.288Z" fill="#CBC7C7"/>
<path opacity="0.3" d="M27.9485 28.0079H19.0742C18.4801 28.0079 17.9985 28.3932 17.9985 28.8685C17.9985 29.3438 18.4801 29.7291 19.0742 29.7291H27.9485C28.5426 29.7291 29.0243 29.3438 29.0243 28.8685C29.0243 28.3932 28.5426 28.0079 27.9485 28.0079Z" fill="#CBC7C7"/>
<path opacity="0.3" d="M30.6375 29.7297H21.7632C21.1691 29.7297 20.6875 30.115 20.6875 30.5903C20.6875 31.0656 21.1691 31.4509 21.7632 31.4509H30.6375C31.2316 31.4509 31.7132 31.0656 31.7132 30.5903C31.7132 30.115 31.2316 29.7297 30.6375 29.7297Z" fill="#CBC7C7"/>
<path opacity="0.5" d="M41.5009 54.4947H27.1438L27.9845 24.2678H40.6602L41.5009 54.4947Z" fill="url(#paint0_linear)" fill-opacity="0.65"/>
<path d="M41.2209 54.4947H27.4387L28.2451 24.2678H40.4137L41.2209 54.4947Z" fill="white"/>
<path opacity="0.05" d="M30.733 54.4947H27.4387L28.2451 24.2678H29.9259L30.733 54.4947Z" fill="#172287"/>
<path d="M25.3535 43.0925H43.3714C43.3714 43.6346 43.1022 44.1545 42.623 44.5379C42.1439 44.9212 41.494 45.1365 40.8164 45.1365H27.9085C27.2309 45.1365 26.581 44.9212 26.1019 44.5379C25.6227 44.1545 25.3535 43.6346 25.3535 43.0925Z" fill="#7E60EE"/>
<path d="M25.3535 32.9287H43.3714C43.3714 33.4708 43.1022 33.9907 42.623 34.374C42.1439 34.7574 41.494 34.9727 40.8164 34.9727H27.9085C27.2309 34.9727 26.581 34.7574 26.1019 34.374C25.6227 33.9907 25.3535 33.4708 25.3535 32.9287Z" fill="#7E60EE"/>
<path d="M34.3612 31.2322C36.1806 31.2322 37.6555 30.0522 37.6555 28.5967C37.6555 27.1412 36.1806 25.9613 34.3612 25.9613C32.5418 25.9613 31.0669 27.1412 31.0669 28.5967C31.0669 30.0522 32.5418 31.2322 34.3612 31.2322Z" fill="#FFFFA5"/>
<path d="M90.5006 16.8423L34.2864 25.9566V31.2137L85.1435 32.3851L90.5006 16.8423Z" fill="#FFFF30" fill-opacity="0.07"/>
<path opacity="0.1" d="M40.9516 45.1348H27.7073V45.2959H40.9516V45.1348Z" fill="#172287"/>
<path opacity="0.1" d="M40.6832 34.9697H27.9097V35.0771H40.6832V34.9697Z" fill="#172287"/>
<path d="M37.9923 54.4948H33.7566V49.8422C33.7566 49.3929 33.9797 48.9619 34.3769 48.6442C34.7741 48.3265 35.3128 48.1479 35.8744 48.1479C36.4361 48.1481 36.9747 48.3267 37.3718 48.6444C37.7689 48.9621 37.9921 49.3929 37.9923 49.8422V54.4948Z" fill="#E0E0E0"/>
<path d="M74.0949 58.7698L3.5 78C3.5 78 15.1041 48.9984 21.2756 47.6738C22.1652 47.4789 23.0941 47.4262 24.0092 47.5189C25.4977 47.6704 26.8442 48.2949 27.8006 49.2201C29.8234 51.1766 36.0184 55.4401 48.4134 50.5681C48.4134 50.5681 52.8506 47.0184 59.977 51.2132C60.4185 51.3889 60.8716 51.5453 61.3342 51.6818C63.5206 52.3429 67.8942 53.2641 71.0035 51.3206C75.3056 48.6315 74.0949 58.7698 74.0949 58.7698Z" fill="#4D8AF0"/>
<path opacity="0.05" d="M27.552 45.128C27.6234 45.1331 27.6984 45.136 27.7727 45.136H30.3441L30.2899 43.0925H27.6084L27.552 45.128Z" fill="#172287"/>
<g opacity="0.05">
<path opacity="0.05" d="M30.1564 32.9272H28.0135L27.9585 34.9707H30.2106L30.1564 32.9272Z" fill="#172287"/>
</g>
<path d="M43.4058 22.1401C43.4058 24.1509 39.3422 25.7806 34.3294 25.7806C29.3165 25.7806 25.2529 24.1509 25.2529 22.1401C25.2529 20.1292 29.3165 16.0709 34.3294 16.0709C39.3422 16.0709 43.4058 20.1298 43.4058 22.1401Z" fill="#7E60EE"/>
<path opacity="0.05" d="M25.1992 22.1401C25.1992 24.1509 29.2628 25.7806 34.2757 25.7806V16.0709C29.2628 16.0709 25.1992 20.1298 25.1992 22.1401Z" fill="#172287"/>
</g>
</g>
<defs>
<filter id="filter0_d" x="0" y="0" width="77" height="77" filterUnits="userSpaceOnUse" color-interpolation-filters="sRGB">
<feFlood flood-opacity="0" result="BackgroundImageFix"/>
<feColorMatrix in="SourceAlpha" type="matrix" values="0 0 0 0 0 0 0 0 0 0 0 0 0 0 0 0 0 0 127 0"/>
<feOffset/>
<feGaussianBlur stdDeviation="5.5"/>
<feColorMatrix type="matrix" values="0 0 0 0 0.566667 0 0 0 0 0.554861 0 0 0 0 0.554861 0 0 0 0.25 0"/>
<feBlend mode="normal" in2="BackgroundImageFix" result="effect1_dropShadow"/>
<feBlend mode="normal" in="SourceGraphic" in2="effect1_dropShadow" result="shape"/>
</filter>
<linearGradient id="paint0_linear" x1="34.3224" y1="54.4947" x2="34.3224" y2="24.2678" gradientUnits="userSpaceOnUse">
<stop stop-color="#808080" stop-opacity="0.25"/>
<stop offset="0.54" stop-color="#808080" stop-opacity="0.12"/>
<stop offset="1" stop-color="#808080" stop-opacity="0.1"/>
</linearGradient>
</defs>
</svg>
